<?xml version="1.0" encoding="utf-8"?>
<!-- Generator: Adobe Illustrator 23.0.3, SVG Export Plug-In . SVG Version: 6.00 Build 0)  -->
<svg version="1.1" id="图层_1" xmlns="http://www.w3.org/2000/svg" xmlns:xlink="http://www.w3.org/1999/xlink" x="0px" y="0px"
	 viewBox="0 0 300 300" style="enable-background:new 0 0 300 300;" xml:space="preserve">
<style type="text/css">
	.st0{fill-rule:evenodd;clip-rule:evenodd;fill:#0F0000;}
</style>
<path class="st0" d="M151.62,5C71.33,5,6.25,70.08,6.25,150.37c0,80.29,65.08,145.37,145.37,145.37
	c80.29,0,145.37-65.08,145.37-145.37C296.99,70.08,231.9,5,151.62,5z M273.25,150.37c0,18.16-3.98,35.38-11.12,50.85L159.93,29.02
	C223.23,33.3,273.25,85.99,273.25,150.37z M205.02,147.4c0,29.49-23.91,53.4-53.4,53.4s-53.4-23.91-53.4-53.4S122.12,94,151.62,94
	S205.02,117.91,205.02,147.4z M143.04,29.04L43.56,206.25c-8.67-16.73-13.57-35.73-13.57-55.88
	C29.98,86.08,79.87,33.44,143.04,29.04z M151.62,272c-44.09,0-82.7-23.46-104.03-58.57l209.55-2.53
	C236.15,247.42,196.75,272,151.62,272z"/>
</svg>
