<?xml version="1.0" encoding="utf-8"?>
<!-- Generator: Adobe Illustrator 23.0.3, SVG Export Plug-In . SVG Version: 6.00 Build 0)  -->
<svg version="1.1" id="图层_1" xmlns="http://www.w3.org/2000/svg" xmlns:xlink="http://www.w3.org/1999/xlink" x="0px" y="0px"
	 viewBox="0 0 300 300" style="enable-background:new 0 0 300 300;" xml:space="preserve">
<style type="text/css">
	.st0{fill-rule:evenodd;clip-rule:evenodd;}
</style>
<g>
	<path class="st0" d="M103.76,140.61c0,0-9.11-6.78-7.74-10.32c1.37-3.53,16.26-20.13,23.22-25.8c6.96-5.66,16.17-16.08,20.64-15.48
		c4.47,0.6,2.84,9.24,2.8,12.48c-0.25,20.04-4.52,27.9-7.96,33.96c-5.84,10.26-9.81,19.17-10.32,20.64
		c-0.51,1.47-2.58,5.16-2.58,5.16s4.18-5.19,7.74-5.16h41.78c3.55-0.03,7.74,5.16,7.74,5.16s-2.07-3.69-2.58-5.16
		c-0.5-1.47-4.48-10.37-10.32-20.64c-3.44-6.06-7.71-13.91-7.96-33.96c-0.04-3.24-1.67-11.88,2.8-12.48
		c4.47-0.6,13.68,9.82,20.64,15.48c6.96,5.66,21.85,22.26,23.22,25.8c1.37,3.53-7.74,10.32-7.74,10.32s28.99-15.24,28.38-20.64
		c-0.4-3.54-26.62-34.02-38.7-46.44c-12.07-12.41-36.62-56.75-36.62-56.75s-24.04,44.34-36.12,56.75
		c-12.07,12.41-38.3,42.9-38.7,46.44C74.77,125.37,103.76,140.61,103.76,140.61z"/>
	<path class="st0" d="M261.53,201.95c-4.72-16.66-18-54.61-20.87-56.73c-4.37-3.23-32.06,14.26-32.06,14.26s10.43-4.5,12.81-1.54
		c2.38,2.95,9.31,24.15,10.73,33.01c1.42,8.86,5.84,22.04,3.09,25.61c-2.76,3.57-9.42-2.16-12.21-3.82
		c-17.23-10.24-21.9-17.86-25.43-23.87c-5.97-10.19-11.69-18.08-12.71-19.26c-1.02-1.17-3.18-4.81-3.18-4.81s2.4,6.22,0.6,9.28
		l-20.89,36.18c-1.75,3.09-8.34,4.12-8.34,4.12s4.23,0.05,5.76,0.35c1.53,0.3,11.23,1.31,23.03,1.38
		c6.97,0.05,15.9,0.28,33.39,10.08c2.83,1.59,11.12,4.49,9.41,8.66c-1.71,4.17-15.34,6.94-23.72,10.13
		c-8.38,3.2-30.2,7.79-33.95,7.21c-3.75-0.58-5.07-11.86-5.07-11.86s-1.3,32.72,3.68,34.89c3.27,1.42,42.77-6.05,59.56-10.29
		c16.79-4.25,67.46-3.34,67.46-3.34S266.25,218.62,261.53,201.95z"/>
	<path class="st0" d="M139.34,210.26l-20.89-36.18c-1.81-3.06,0.6-9.28,0.6-9.28s-2.16,3.64-3.18,4.81
		c-1.02,1.17-6.74,9.07-12.71,19.26c-3.52,6.01-8.19,13.63-25.43,23.87c-2.79,1.66-9.45,7.39-12.21,3.82
		c-2.76-3.57,1.66-16.75,3.09-25.61c1.42-8.86,8.36-30.05,10.73-33.01c2.38-2.95,12.81,1.54,12.81,1.54s-27.69-17.48-32.06-14.26
		c-2.87,2.12-16.15,40.07-20.87,56.73c-4.72,16.66-30.84,60.09-30.84,60.09s50.42-1.35,67.21,2.9c16.79,4.25,56.3,11.72,59.56,10.29
		c4.98-2.17,3.68-34.89,3.68-34.89s-1.32,11.28-5.07,11.86c-3.75,0.58-25.57-4.01-33.95-7.21c-8.38-3.2-22.01-5.96-23.72-10.13
		c-1.71-4.17,6.58-7.08,9.41-8.66c17.48-9.8,26.42-10.04,33.39-10.08c11.81-0.08,21.5-1.08,23.03-1.38c1.53-0.3,5.76-0.35,5.76-0.35
		S141.09,213.36,139.34,210.26z"/>
	<path class="st0" d="M159.52,198.89c2.31-2.96,13.59-22.15,14.36-24.98c0.69-2.55,0.71-5.15-1.14-6.89
		c-2.04-1.93-3.98-2.97-6.09-3.06c-1.93-0.36-6.93-0.87-10.04-0.88c-7.82-0.03-8.6,0.03-15.21,0c-3.17-0.01-11.86,0.02-13.06,5.23
		c-0.25,1.09-0.13,2.32,0.17,3.53c0.08,2.84,12.73,25.59,16.85,31.65c1.14,1.68,5.06,1.86,5.9,1.86
		C155.36,205.35,157.87,201,159.52,198.89z"/>
</g>
</svg>
