<?xml version="1.0" encoding="utf-8"?>
<!-- Generator: Adobe Illustrator 23.0.3, SVG Export Plug-In . SVG Version: 6.00 Build 0)  -->
<svg version="1.1" id="图层_1" xmlns="http://www.w3.org/2000/svg" xmlns:xlink="http://www.w3.org/1999/xlink" x="0px" y="0px"
	 viewBox="0 0 300 300" style="enable-background:new 0 0 300 300;" xml:space="preserve">
<path d="M222.7,142.8c-34.5-4.5-42.7-2-96.7-2c-39.6,0-72.9-27.7-77.4-56.2c-4.5-28.5,4.5-63,4.5-63s-39,33-40.5,75
	c-1.5,42,27.2,116.4,78.8,143.8c68.3,36.3,119.3,31.6,147.8,27.1c28.5-4.5,44.4-16.7,50.4-53.9C297.1,167.1,257.3,147.3,222.7,142.8
	z M173.2,152.5c-0.4,1-1.9,1.4-3.9,2s-8.5,1.2-10.3-1.4c-1.8-2.6,5.7-4.2,8.9-3.9S173.6,151.6,173.2,152.5z M201.1,160.8
	c-9-6.6-5.8-6.9-4.2-7.5c1.6-0.7,5.4-0.9,13.1-0.9c8.9,0,27.7,9.2,27.9,12.4C238.1,167.9,210.1,167.3,201.1,160.8z"/>
</svg>
