<?xml version="1.0" encoding="utf-8"?>
<!-- Generator: Adobe Illustrator 23.0.3, SVG Export Plug-In . SVG Version: 6.00 Build 0)  -->
<svg version="1.1" id="图层_1" xmlns="http://www.w3.org/2000/svg" xmlns:xlink="http://www.w3.org/1999/xlink" x="0px" y="0px"
	 viewBox="0 0 1024 1024" style="enable-background:new 0 0 1024 1024;" xml:space="preserve">
<style type="text/css">
	.st0{fill:#3F73A1;}
</style>
<g>
	<path class="st0" d="M483,270.3c13.5-16.5,26.4-35.4,28.3-57.2c1.9,19.7,12.6,37.1,24.5,52.4c19.6,24.6,43.8,45.3,68.5,64.6
		c32.9,25.4,67.9,48.1,103.5,69.4c29.3,17.5,59,34,89.4,49.5c3.7,20,4.5,40.5,3.7,60.8c-2.1,46.3-14.4,92.3-36.3,133.1
		c-16,29.9-37,57.1-61.5,80.5c-0.8-0.4-2.5-1.1-3.3-1.5c22.1-23.8,41.6-50.7,53.8-81c9-22.5,13.7-47.2,10.1-71.3
		c-3.2-22.3-14-43.1-29.5-59.3c-0.7-0.7-1.4-1.3-2.2-1.7c-73.5-43.4-147-86.7-220.5-130.1c-73.4,43.3-146.9,86.6-220.3,130
		c-0.8,0.5-1.6,1.1-2.3,1.7C272,527.3,260.9,550,258.5,574c-2.8,25.7,3.5,51.5,14.1,74.9c12.3,27.1,30.2,51.4,50.4,73.1
		c-1.1,0.5-2.2,1-3.4,1.5c-41.5-39.5-72.6-90.1-87.3-145.5C221.3,536,218,491.7,225.5,449c35-17.8,69.1-37,102.6-57.5
		c32.3-19.8,64-40.9,93.9-64.2C443.8,310,465,291.7,483,270.3z"/>
	<path class="st0" d="M500.3,448.7c5.5-8.2,10.1-17.4,10.7-27.4c1.8,17,12.6,31.1,23.7,43.4c20.9,22.5,45.9,40.7,71.3,57.7
		c29.8,19.7,60.8,37.6,92.6,53.8c6.5,37.7,0.7,77.2-14.7,112.2c-11,24.9-27.4,47.3-47,66.2c-0.6-0.3-1.7-0.7-2.2-1
		c13.1-14.2,24.9-30,32.9-47.7c7.2-15.8,11.5-33.5,9.2-50.9c-1.8-15-8.9-29.1-19.3-40c-1-1-2.3-1.8-3.5-2.5
		c-47.7-28-95.2-56.3-143-84.2c-48.1,28.6-96.5,56.9-144.6,85.5c-13.1,12.3-20.8,30.1-21.3,48.1c-0.6,17,4.4,33.7,12,48.7
		c7.9,15.9,18.9,30.1,30.8,43.2c-1.4,0.8-2.6,0.7-3.5-0.4c-26-25.1-45.7-56.8-55.5-91.7c-7.7-27.7-10-57.1-5.1-85.4
		c32.4-16.6,64-34.8,94.3-54.9c17.6-11.8,34.7-24.3,50.7-38.2C480.3,472.7,491.5,461.6,500.3,448.7z"/>
	<path class="st0" d="M134.2,549.4c17.2-8.5,34.6-16.7,50.8-27c3.2,17.3,7.2,34.4,12.8,51c-31.3,14-61.2,30.7-90.1,49.1
		c12.6,38.6,27.1,76.7,45.1,113.1c8.3,16.4,17.3,32.6,28.9,47c9.9,12.3,23.3,21.2,37.2,28.3c-24.2-4.9-48.4-9.9-72.6-14.9
		c-1.4-0.1-2.3-0.9-2.8-2.1c-18-38-36-76.1-53.9-114.1c-3.8-8-7.6-15.9-11-24C66,628.3,49.4,602,26,582.5
		c-5.7-5.1-12.7-8.4-19.6-11.5c12.9,4.3,26.6,5.2,40,4.4C77.2,573.3,106.7,562.9,134.2,549.4z"/>
	<path class="st0" d="M826.3,573.4c5.6-16.6,9.6-33.8,12.8-51c15.5,10,32.3,17.9,48.8,26.1c25.6,12.8,52.9,22.8,81.5,26.1
		c16.1,1.7,32.7,1.5,48.2-3.7c-6.7,3.1-13.4,6.2-19,11.1c-22.7,18.7-39,44-51.5,70.3c-10.7,24.1-22.3,47.8-33.5,71.7
		c-11,23.3-22,46.6-33.1,70c-0.5,1.4-1.6,2.1-3.1,2.2c-24.1,4.9-48.2,9.9-72.3,14.8c14.8-7.4,28.9-17.1,39-30.4
		c16-20.9,27.5-44.7,38.4-68.5c12.9-29.1,24.1-59.1,34-89.4C887.5,604.1,857.6,587.4,826.3,573.4z"/>
	<path class="st0" d="M506.3,579.7c2.5-4.3,4.4-9.1,4.7-14.2c1.4,11.5,8.8,21.1,16.4,29.3c11.9,12.6,25.8,23.1,40.1,32.9
		c21.1,14.4,43.3,27.3,66.1,39c6.2,37.8-5,78.1-29.9,107.3c-3.4,3.7-6.5,7.8-10.5,10.8c-0.4,0-1.1,0.1-1.5,0.1
		c6.7-8,13.6-16.1,18.5-25.4c6.1-11.1,10.3-23.8,9.4-36.6c-0.6-10.6-5.3-20.9-12.5-28.6c-1.9-1.8-4.4-2.9-6.6-4.3
		c-29.8-17.6-59.5-35.1-89.3-52.7c-31.5,18.6-63.1,37.1-94.5,55.8c-10.1,9.1-15.1,23.3-14,36.8c1.2,15.8,8.7,30.4,18,42.9
		c3.1,4.2,6.7,8,9.9,12.1c-1.2,0.2-2.2-0.2-3-1.1c-12.9-12.7-23.4-27.8-30.4-44.6c-9.4-22.8-12.6-48.1-8.7-72.5
		c30.7-15.9,60.8-33.5,87.8-55.1C487.7,602.4,498.8,592.4,506.3,579.7z"/>
	<path class="st0" d="M213,622.6c0.5-0.1,1.5-0.4,1.9-0.5c5.5,8,11.2,16,17.3,23.6c-10.6,5.2-21.1,10.7-31.4,16.6
		c8.6,20,17.8,39.8,28.3,58.9c6.2,11.1,12.7,22.2,20.8,32.1c5.3,6.5,11.8,11.9,18.5,16.8c-15.6-3.6-31.3-7.1-46.9-10.7
		c-1.9-0.4-2.9-2.3-3.7-4c-9.7-20.3-19.6-40.5-29.3-60.7c-7.9-16.7-16.1-33.6-28.4-47.6c-4.8-5.4-10.2-10.5-17.1-13
		c9.3,2.7,19.1,2.7,28.6,1.4C186,633.6,199.9,628.8,213,622.6z"/>
	<path class="st0" d="M791.8,645.7c6.2-7.7,11.9-15.8,17.5-24c14.8,7.2,30.7,12.7,47.2,14.4c8.2,0.8,16.6,0.5,24.5-1.9
		c-7.4,2.7-13.1,8.3-18.1,14.1c-8.8,10.4-15.5,22.2-21.6,34.4c-11.8,24.5-23.7,49-35.5,73.5c-0.8,1.8-2.2,3.3-4.2,3.5
		c-15.4,3.5-30.7,7-46.1,10.5c7.3-5.3,14.2-11.3,19.8-18.4c7.6-9.7,13.9-20.4,19.9-31.2c10.3-18.9,19.5-38.4,27.9-58.2
		C812.9,656.4,802.4,651,791.8,645.7z"/>
</g>
</svg>
